# Blender 3.6.1
# www.blender.org
mtllib boirder.mtl
o BorderSingle_(2)
v 0.000000 1.000000 -0.001230
v 0.000000 1.000000 -0.000000
v 0.000000 0.000000 0.000000
v 0.000000 -0.000000 -0.001230
v 0.000000 0.000000 -32.000000
v 0.000000 1.000000 -32.000000
v 0.000000 1.000000 -32.000000
v 0.000000 0.000000 -32.000000
v -1.000000 1.000000 0.000000
v -1.000000 0.000000 0.000000
v -1.000000 0.000000 -32.000000
v -1.000000 0.000000 -32.000000
v -1.000000 1.000000 -32.000000
v -1.000000 1.000000 -32.000000
vn 1.0000 -0.0000 -0.0000
vn -0.0000 -0.0000 1.0000
vn 0.0012 -0.0000 1.0000
vn -0.0000 -0.0000 -1.0000
vn -1.0000 -0.0000 -0.0000
vn -0.0000 -1.0000 -0.0000
vn -0.0000 1.0000 -0.0000
vt 0.562500 0.562500
vt 0.437500 0.562500
vt 0.437500 0.437500
vt 0.562500 0.437500
vt 31.562500 0.437500
vt 31.562500 0.562500
vt 31.437500 0.562500
vt 31.437500 0.437500
vt -0.437500 0.437500
vt -0.437500 0.562500
vt -0.562500 0.562500
vt -0.562500 0.437500
vt -0.437500 -31.562500
vt -0.437500 -31.437500
vt -0.562500 -31.437500
vt -0.562500 -31.562500
vt 0.437500 -31.437500
vt 0.437500 -31.562500
vt 0.562500 -31.562500
vt 0.562500 -31.437500
vt -14.125000 0.437500
vt -14.125000 0.562500
vt -17.875000 0.562500
vt -17.875000 0.437500
vt -0.437500 -14.125000
vt -0.562500 -14.125000
vt -0.562500 -17.875000
vt -0.437500 -17.875000
vt 0.562500 -14.125000
vt 0.437500 -14.125000
vt 0.437500 -17.875000
vt 0.562500 -17.875000
vt 14.125000 0.562500
vt 14.125000 0.437500
vt 17.875000 0.437500
vt 17.875000 0.562500
s 1
usemtl Default_OBJ
f 1/1/1 2/2/1 3/3/1 4/4/1
f 5/5/2 6/6/2 7/7/2 8/8/2
f 4/9/3 1/10/3 9/11/3 10/12/3
f 5/13/2 8/14/2 11/15/2 12/16/2
f 7/17/2 6/18/2 13/19/2 14/20/2
f 6/2/4 5/3/4 12/4/4 13/1/4
f 10/21/5 9/22/5 14/23/5 11/24/5
f 4/25/6 10/26/6 11/27/6 8/28/6
f 9/29/7 1/30/7 7/31/7 14/32/7
f 1/33/1 4/34/1 8/35/1 7/36/1
